<svg width="42" height="42" viewBox="0 0 42 42" fill="none" xmlns="http://www.w3.org/2000/svg">
<path d="M10.2376 29.9251C11.7251 28.7876 13.3876 27.8907 15.2251 27.2344C17.0626 26.5782 18.9876 26.2501 21.0001 26.2501C23.0126 26.2501 24.9376 26.5782 26.7751 27.2344C28.6126 27.8907 30.2751 28.7876 31.7626 29.9251C32.7834 28.7292 33.5782 27.373 34.1469 25.8563C34.7157 24.3396 35.0001 22.7209 35.0001 21.0001C35.0001 17.1209 33.6365 13.8178 30.9094 11.0907C28.1824 8.3636 24.8792 7.00006 21.0001 7.00006C17.1209 7.00006 13.8178 8.3636 11.0907 11.0907C8.3636 13.8178 7.00006 17.1209 7.00006 21.0001C7.00006 22.7209 7.28444 24.3396 7.85319 25.8563C8.42194 27.373 9.21673 28.7292 10.2376 29.9251ZM21.0001 22.7501C19.2792 22.7501 17.8282 22.1594 16.6469 20.9782C15.4657 19.7969 14.8751 18.3459 14.8751 16.6251C14.8751 14.9042 15.4657 13.4532 16.6469 12.2719C17.8282 11.0907 19.2792 10.5001 21.0001 10.5001C22.7209 10.5001 24.1719 11.0907 25.3532 12.2719C26.5344 13.4532 27.1251 14.9042 27.1251 16.6251C27.1251 18.3459 26.5344 19.7969 25.3532 20.9782C24.1719 22.1594 22.7209 22.7501 21.0001 22.7501ZM21.0001 38.5001C18.5792 38.5001 16.3042 38.0407 14.1751 37.1219C12.0459 36.2032 10.1938 34.9563 8.61881 33.3813C7.04381 31.8063 5.79694 29.9542 4.87819 27.8251C3.95944 25.6959 3.50006 23.4209 3.50006 21.0001C3.50006 18.5792 3.95944 16.3042 4.87819 14.1751C5.79694 12.0459 7.04381 10.1938 8.61881 8.61881C10.1938 7.04381 12.0459 5.79694 14.1751 4.87819C16.3042 3.95944 18.5792 3.50006 21.0001 3.50006C23.4209 3.50006 25.6959 3.95944 27.8251 4.87819C29.9542 5.79694 31.8063 7.04381 33.3813 8.61881C34.9563 10.1938 36.2032 12.0459 37.1219 14.1751C38.0407 16.3042 38.5001 18.5792 38.5001 21.0001C38.5001 23.4209 38.0407 25.6959 37.1219 27.8251C36.2032 29.9542 34.9563 31.8063 33.3813 33.3813C31.8063 34.9563 29.9542 36.2032 27.8251 37.1219C25.6959 38.0407 23.4209 38.5001 21.0001 38.5001Z" fill="#1D1B20"/>
<path d="M10.2376 29.9251C11.7251 28.7876 13.3876 27.8907 15.2251 27.2344C17.0626 26.5782 18.9876 26.2501 21.0001 26.2501C23.0126 26.2501 24.9376 26.5782 26.7751 27.2344C28.6126 27.8907 30.2751 28.7876 31.7626 29.9251C32.7834 28.7292 33.5782 27.373 34.1469 25.8563C34.7157 24.3396 35.0001 22.7209 35.0001 21.0001C35.0001 17.1209 33.6365 13.8178 30.9094 11.0907C28.1824 8.3636 24.8792 7.00006 21.0001 7.00006C17.1209 7.00006 13.8178 8.3636 11.0907 11.0907C8.3636 13.8178 7.00006 17.1209 7.00006 21.0001C7.00006 22.7209 7.28444 24.3396 7.85319 25.8563C8.42194 27.373 9.21673 28.7292 10.2376 29.9251ZM21.0001 22.7501C19.2792 22.7501 17.8282 22.1594 16.6469 20.9782C15.4657 19.7969 14.8751 18.3459 14.8751 16.6251C14.8751 14.9042 15.4657 13.4532 16.6469 12.2719C17.8282 11.0907 19.2792 10.5001 21.0001 10.5001C22.7209 10.5001 24.1719 11.0907 25.3532 12.2719C26.5344 13.4532 27.1251 14.9042 27.1251 16.6251C27.1251 18.3459 26.5344 19.7969 25.3532 20.9782C24.1719 22.1594 22.7209 22.7501 21.0001 22.7501ZM21.0001 38.5001C18.5792 38.5001 16.3042 38.0407 14.1751 37.1219C12.0459 36.2032 10.1938 34.9563 8.61881 33.3813C7.04381 31.8063 5.79694 29.9542 4.87819 27.8251C3.95944 25.6959 3.50006 23.4209 3.50006 21.0001C3.50006 18.5792 3.95944 16.3042 4.87819 14.1751C5.79694 12.0459 7.04381 10.1938 8.61881 8.61881C10.1938 7.04381 12.0459 5.79694 14.1751 4.87819C16.3042 3.95944 18.5792 3.50006 21.0001 3.50006C23.4209 3.50006 25.6959 3.95944 27.8251 4.87819C29.9542 5.79694 31.8063 7.04381 33.3813 8.61881C34.9563 10.1938 36.2032 12.0459 37.1219 14.1751C38.0407 16.3042 38.5001 18.5792 38.5001 21.0001C38.5001 23.4209 38.0407 25.6959 37.1219 27.8251C36.2032 29.9542 34.9563 31.8063 33.3813 33.3813C31.8063 34.9563 29.9542 36.2032 27.8251 37.1219C25.6959 38.0407 23.4209 38.5001 21.0001 38.5001Z" fill="#1D1B20"/>
</svg>
